<mxfile host="65bd71144e">
    <diagram name="Diagrama de Classes Completo com PadrÃµes" id="M-nB-cDEF12345gHiJ-kM">
        <mxGraphModel dx="1201" dy="704" grid="1" gridSize="10" guides="1" tooltips="1" connect="1" arrows="1" fold="1" page="1" pageScale="1" pageWidth="1654" pageHeight="1169" math="0" shadow="0">
            <root>
                <mxCell id="0"/>
                <mxCell id="1" parent="0"/>
                <mxCell id="FacadeController" value="FacadeSingletonController" style="swimlane;fontStyle=1;align=center;verticalAlign=top;childLayout=stackLayout;horizontal=1;startSize=30;horizontalStack=0;resizeParent=1;resizeParentMax=0;resizeLast=0;collapsible=0;marginBottom=0;html=1;whiteSpace=wrap;" parent="1" vertex="1">
                    <mxGeometry x="520" width="240" height="180" as="geometry"/>
                </mxCell>
                <mxCell id="FacadeController-stereotype" value="&lt;i&gt;&amp;lt;&amp;lt;Facade, Singleton, Invoker&amp;gt;&amp;gt;&lt;/i&gt;" style="text;html=1;strokeColor=none;fillColor=none;align=center;verticalAlign=middle;whiteSpace=wrap;rounded=0;" parent="FacadeController" vertex="1">
                    <mxGeometry y="30" width="240" height="30" as="geometry"/>
                </mxCell>
                <mxCell id="FacadeController-attrs" value="- instancia: FacadeSingletonController&lt;br&gt;- historicoComandos: stack&amp;lt;ICommand&amp;gt;&lt;br&gt;- centralNotificacoes: CentralDeNotificacoes" style="text;html=1;strokeColor=none;fillColor=none;align=left;verticalAlign=middle;whiteSpace=wrap;rounded=0;spacingLeft=4;" parent="FacadeController" vertex="1">
                    <mxGeometry y="60" width="240" height="50" as="geometry"/>
                </mxCell>
                <mxCell id="FacadeController-methods" value="+ getInstance()&lt;hr&gt;+ executarComando(cmd: ICommand)&lt;br&gt;+ desfazerUltimaAcao()&lt;br&gt;+ getCentralNotificacoes()" style="text;html=1;strokeColor=none;fillColor=none;align=left;verticalAlign=middle;whiteSpace=wrap;rounded=0;spacingLeft=4;" parent="FacadeController" vertex="1">
                    <mxGeometry y="110" width="240" height="70" as="geometry"/>
                </mxCell>
                <mxCell id="ICommand" value="ICommand" style="swimlane;fontStyle=1;align=center;verticalAlign=top;childLayout=stackLayout;horizontal=1;startSize=30;horizontalStack=0;resizeParent=1;resizeParentMax=0;resizeLast=0;collapsible=0;marginBottom=0;html=1;whiteSpace=wrap;" parent="1" vertex="1">
                    <mxGeometry x="470" y="200" width="220" height="90" as="geometry"/>
                </mxCell>
                <mxCell id="ICommand-stereotype" value="&lt;i&gt;&amp;lt;&amp;lt;Interface&amp;gt;&amp;gt;&lt;/i&gt;&lt;br&gt;&lt;b&gt;Command&lt;/b&gt;" style="text;html=1;strokeColor=none;fillColor=none;align=center;verticalAlign=middle;whiteSpace=wrap;rounded=0;" parent="ICommand" vertex="1">
                    <mxGeometry y="30" width="220" height="30" as="geometry"/>
                </mxCell>
                <mxCell id="ICommand-methods" value="+ execute()&lt;br&gt;+ undo()" style="text;html=1;strokeColor=none;fillColor=none;align=left;verticalAlign=middle;whiteSpace=wrap;rounded=0;spacingLeft=4;" parent="ICommand" vertex="1">
                    <mxGeometry y="60" width="220" height="30" as="geometry"/>
                </mxCell>
                <mxCell id="AtualizarUsuarioCommand" value="AtualizarUsuarioCommand" style="swimlane;fontStyle=1;align=center;verticalAlign=top;childLayout=stackLayout;horizontal=1;startSize=30;horizontalStack=0;resizeParent=1;resizeParentMax=0;resizeLast=0;collapsible=0;marginBottom=0;html=1;whiteSpace=wrap;" parent="1" vertex="1">
                    <mxGeometry x="360" y="440" width="220" height="130" as="geometry"/>
                </mxCell>
                <mxCell id="AtualizarUsuarioCommand-stereotype" value="&lt;i&gt;&amp;lt;&amp;lt;Concrete Command, Caretaker&amp;gt;&amp;gt;&lt;/i&gt;" style="text;html=1;strokeColor=none;fillColor=none;align=center;verticalAlign=middle;whiteSpace=wrap;rounded=0;" parent="AtualizarUsuarioCommand" vertex="1">
                    <mxGeometry y="30" width="220" height="30" as="geometry"/>
                </mxCell>
                <mxCell id="AtualizarUsuarioCommand-attrs" value="- gerenciador: GerenciadorTabelas&lt;br&gt;- usuarioNovo: Usuario&lt;br&gt;- memento: UsuarioMemento" style="text;html=1;strokeColor=none;fillColor=none;align=left;verticalAlign=middle;whiteSpace=wrap;rounded=0;spacingLeft=4;" parent="AtualizarUsuarioCommand" vertex="1">
                    <mxGeometry y="60" width="220" height="40" as="geometry"/>
                </mxCell>
                <mxCell id="AtualizarUsuarioCommand-methods" value="+ execute()&lt;br&gt;+ undo()" style="text;html=1;strokeColor=none;fillColor=none;align=left;verticalAlign=middle;whiteSpace=wrap;rounded=0;spacingLeft=4;" parent="AtualizarUsuarioCommand" vertex="1">
                    <mxGeometry y="100" width="220" height="30" as="geometry"/>
                </mxCell>
                <mxCell id="GerenciadorTabelas" value="GerenciadorTabelas" style="swimlane;fontStyle=1;align=center;verticalAlign=top;childLayout=stackLayout;horizontal=1;startSize=30;horizontalStack=0;resizeParent=1;resizeParentMax=0;resizeLast=0;collapsible=0;marginBottom=0;html=1;whiteSpace=wrap;" parent="1" vertex="1">
                    <mxGeometry x="360" y="610" width="220" height="90" as="geometry"/>
                </mxCell>
                <mxCell id="GerenciadorTabelas-stereotype" value="&lt;b&gt;Receiver&lt;/b&gt;" style="text;html=1;strokeColor=none;fillColor=none;align=center;verticalAlign=middle;whiteSpace=wrap;rounded=0;" parent="GerenciadorTabelas" vertex="1">
                    <mxGeometry y="30" width="220" height="30" as="geometry"/>
                </mxCell>
                <mxCell id="GerenciadorTabelas-methods" value="+ criar(entidade)&lt;br&gt;+ atualizar(entidade)&lt;br&gt;+ ..." style="text;html=1;strokeColor=none;fillColor=none;align=left;verticalAlign=middle;whiteSpace=wrap;rounded=0;spacingLeft=4;" parent="GerenciadorTabelas" vertex="1">
                    <mxGeometry y="60" width="220" height="30" as="geometry"/>
                </mxCell>
                <mxCell id="Usuario" value="Usuario" style="swimlane;fontStyle=1;align=center;verticalAlign=top;childLayout=stackLayout;horizontal=1;startSize=30;horizontalStack=0;resizeParent=1;resizeParentMax=0;resizeLast=0;collapsible=0;marginBottom=0;html=1;whiteSpace=wrap;" parent="1" vertex="1">
                    <mxGeometry x="710" y="550" width="200" height="150" as="geometry"/>
                </mxCell>
                <mxCell id="Usuario-stereotype" value="&lt;i&gt;&amp;lt;&amp;lt;Entity, Originator&amp;gt;&amp;gt;&lt;/i&gt;" style="text;html=1;strokeColor=none;fillColor=none;align=center;verticalAlign=middle;whiteSpace=wrap;rounded=0;" parent="Usuario" vertex="1">
                    <mxGeometry y="30" width="200" height="30" as="geometry"/>
                </mxCell>
                <mxCell id="Usuario-attrs" value="- nome: string&lt;br&gt;- email: string&lt;br&gt;- idade: int" style="text;html=1;strokeColor=none;fillColor=none;align=left;verticalAlign=middle;whiteSpace=wrap;rounded=0;spacingLeft=4;" parent="Usuario" vertex="1">
                    <mxGeometry y="60" width="200" height="40" as="geometry"/>
                </mxCell>
                <mxCell id="Usuario-methods" value="+ criarMemento(): UsuarioMemento&lt;br&gt;+ restaurarMemento(m: Memento)" style="text;html=1;strokeColor=none;fillColor=none;align=left;verticalAlign=middle;whiteSpace=wrap;rounded=0;spacingLeft=4;" parent="Usuario" vertex="1">
                    <mxGeometry y="100" width="200" height="50" as="geometry"/>
                </mxCell>
                <mxCell id="UsuarioMemento" value="UsuarioMemento" style="swimlane;fontStyle=1;align=center;verticalAlign=top;childLayout=stackLayout;horizontal=1;startSize=30;horizontalStack=0;resizeParent=1;resizeParentMax=0;resizeLast=0;collapsible=0;marginBottom=0;html=1;whiteSpace=wrap;" parent="1" vertex="1">
                    <mxGeometry x="980" y="520" width="200" height="110" as="geometry"/>
                </mxCell>
                <mxCell id="UsuarioMemento-stereotype" value="&lt;b&gt;Memento&lt;/b&gt;" style="text;html=1;strokeColor=none;fillColor=none;align=center;verticalAlign=middle;whiteSpace=wrap;rounded=0;" parent="UsuarioMemento" vertex="1">
                    <mxGeometry y="30" width="200" height="30" as="geometry"/>
                </mxCell>
                <mxCell id="UsuarioMemento-attrs" value="- nome: string&lt;br&gt;- email: string&lt;br&gt;- idade: int" style="text;html=1;strokeColor=none;fillColor=none;align=left;verticalAlign=middle;whiteSpace=wrap;rounded=0;spacingLeft=4;" parent="UsuarioMemento" vertex="1">
                    <mxGeometry y="60" width="200" height="50" as="geometry"/>
                </mxCell>
                <mxCell id="edge-facade-uses-icommand" style="endArrow=open;endFill=0;dashed=1;html=1;rounded=0;entryX=0;entryY=0.5;entryDx=0;entryDy=0;exitX=0;exitY=0.25;exitDx=0;exitDy=0;" parent="1" source="FacadeController-attrs" target="ICommand-stereotype" edge="1">
                    <mxGeometry relative="1" as="geometry">
                        <mxPoint x="480" y="165" as="targetPoint"/>
                        <Array as="points">
                            <mxPoint x="380" y="73"/>
                            <mxPoint x="380" y="240"/>
                        </Array>
                    </mxGeometry>
                </mxCell>
                <mxCell id="edge-concrete-impl-icommand" style="endArrow=block;endFill=0;html=1;rounded=0;dashed=1;exitX=0.5;exitY=0;exitDx=0;exitDy=0;entryX=0.5;entryY=1;entryDx=0;entryDy=0;" parent="1" source="AtualizarUsuarioCommand" target="ICommand" edge="1">
                    <mxGeometry relative="1" as="geometry"/>
                </mxCell>
                <mxCell id="edge-command-uses-receiver" style="endArrow=open;endFill=0;dashed=1;html=1;rounded=0;exitX=0.5;exitY=1;exitDx=0;exitDy=0;entryX=0.5;entryY=0;entryDx=0;entryDy=0;" parent="1" source="AtualizarUsuarioCommand" target="GerenciadorTabelas" edge="1">
                    <mxGeometry relative="1" as="geometry"/>
                </mxCell>
                <mxCell id="edge-command-uses-originator" style="endArrow=open;endFill=0;dashed=1;html=1;rounded=0;exitX=1;exitY=0.5;exitDx=0;exitDy=0;entryX=0;entryY=0.5;entryDx=0;entryDy=0;" parent="1" source="AtualizarUsuarioCommand" target="Usuario" edge="1">
                    <mxGeometry relative="1" as="geometry"/>
                </mxCell>
                <mxCell id="edge-originator-creates-memento" style="endArrow=open;endFill=0;dashed=1;html=1;rounded=0;exitX=1;exitY=0.5;exitDx=0;exitDy=0;entryX=0;entryY=0.5;entryDx=0;entryDy=0;" parent="1" source="Usuario" target="UsuarioMemento" edge="1">
                    <mxGeometry relative="1" as="geometry"/>
                </mxCell>
                <mxCell id="edge-caretaker-holds-memento" style="endArrow=open;endFill=0;dashed=1;html=1;rounded=0;exitX=1;exitY=0.25;exitDx=0;exitDy=0;entryX=0;entryY=0.25;entryDx=0;entryDy=0;" parent="1" source="AtualizarUsuarioCommand" target="UsuarioMemento" edge="1">
                    <mxGeometry relative="1" as="geometry"/>
                </mxCell>
                <mxCell id="note-command" value="&lt;b&gt;PadrÃ£o Command&lt;/b&gt;&lt;br&gt;A &lt;i&gt;Facade&lt;/i&gt; (Invoker) executa objetos &lt;i&gt;ICommand&lt;/i&gt; em vez de chamar mÃ©todos diretamente. Cada comando encapsula uma aÃ§Ã£o e seu &lt;i&gt;Receiver&lt;/i&gt; (&lt;i&gt;GerenciadorTabelas&lt;/i&gt;)." style="shape=note;whiteSpace=wrap;html=1;backgroundOutline=1;darkOpacity=0.05;size=14;" parent="1" vertex="1">
                    <mxGeometry x="50" y="720" width="280" height="100" as="geometry"/>
                </mxCell>
                <mxCell id="note-memento" value="&lt;b&gt;PadrÃ£o Memento&lt;/b&gt;&lt;br&gt;O &lt;i&gt;Usuario&lt;/i&gt; (Originator) pode criar um &lt;i&gt;UsuarioMemento&lt;/i&gt; para salvar seu estado. O &lt;i&gt;AtualizarUsuarioCommand&lt;/i&gt; (Caretaker) guarda este memento antes de executar a atualizaÃ§Ã£o para poder usÃ¡-lo na operaÃ§Ã£o de &lt;i&gt;undo()&lt;/i&gt;." style="shape=note;whiteSpace=wrap;html=1;backgroundOutline=1;darkOpacity=0.05;size=14;" parent="1" vertex="1">
                    <mxGeometry x="630" y="715" width="350" height="110" as="geometry"/>
                </mxCell>
                <mxCell id="note-outros" value="ObservaÃ§Ã£o: Outros padrÃµes implementados anteriormente (DAO, Factory, Adapter, Template Method, etc.) foram omitidos deste diagrama para focar nos novos requisitos e manter a clareza." style="shape=note;whiteSpace=wrap;html=1;backgroundOutline=1;darkOpacity=0.05;size=14;fillColor=#fff2cc;strokeColor=#d6b656;" parent="1" vertex="1">
                    <mxGeometry x="40" y="860" width="1440" height="40" as="geometry"/>
                </mxCell>
                <mxCell id="IObserver" value="IObserver" style="swimlane;fontStyle=1;align=center;verticalAlign=top;childLayout=stackLayout;horizontal=1;startSize=30;horizontalStack=0;resizeParent=1;resizeParentMax=0;resizeLast=0;collapsible=0;marginBottom=0;html=1;whiteSpace=wrap;" vertex="1" parent="1">
                    <mxGeometry x="1330" y="360" width="220" height="90" as="geometry"/>
                </mxCell>
                <mxCell id="IObserver-stereotype" value="&lt;i&gt;&amp;lt;&amp;lt;Interface&amp;gt;&amp;gt;&lt;/i&gt;&lt;br&gt;&lt;b&gt;Observer&lt;/b&gt;" style="text;html=1;strokeColor=none;fillColor=none;align=center;verticalAlign=middle;whiteSpace=wrap;rounded=0;" vertex="1" parent="IObserver">
                    <mxGeometry y="30" width="220" height="30" as="geometry"/>
                </mxCell>
                <mxCell id="IObserver-methods" value="+ update(mensagem: string)" style="text;html=1;strokeColor=none;fillColor=none;align=left;verticalAlign=middle;whiteSpace=wrap;rounded=0;spacingLeft=4;" vertex="1" parent="IObserver">
                    <mxGeometry y="60" width="220" height="30" as="geometry"/>
                </mxCell>
                <mxCell id="ISubject" value="ISubject" style="swimlane;fontStyle=1;align=center;verticalAlign=top;childLayout=stackLayout;horizontal=1;startSize=30;horizontalStack=0;resizeParent=1;resizeParentMax=0;resizeLast=0;collapsible=0;marginBottom=0;html=1;whiteSpace=wrap;" vertex="1" parent="1">
                    <mxGeometry x="970" y="150" width="220" height="120" as="geometry"/>
                </mxCell>
                <mxCell id="ISubject-stereotype" value="&lt;i&gt;&amp;lt;&amp;lt;Interface&amp;gt;&amp;gt;&lt;/i&gt;&lt;br&gt;&lt;b&gt;Subject&lt;/b&gt;" style="text;html=1;strokeColor=none;fillColor=none;align=center;verticalAlign=middle;whiteSpace=wrap;rounded=0;" vertex="1" parent="ISubject">
                    <mxGeometry y="30" width="220" height="30" as="geometry"/>
                </mxCell>
                <mxCell id="ISubject-methods" value="+ registrar(obs: IObserver)&lt;br&gt;+ remover(obs: IObserver)&lt;br&gt;+ notificar()" style="text;html=1;strokeColor=none;fillColor=none;align=left;verticalAlign=middle;whiteSpace=wrap;rounded=0;spacingLeft=4;" vertex="1" parent="ISubject">
                    <mxGeometry y="60" width="220" height="60" as="geometry"/>
                </mxCell>
                <mxCell id="AlunoApp" value="AlunoApp" style="swimlane;fontStyle=1;align=center;verticalAlign=top;childLayout=stackLayout;horizontal=1;startSize=30;horizontalStack=0;resizeParent=1;resizeParentMax=0;resizeLast=0;collapsible=0;marginBottom=0;html=1;whiteSpace=wrap;" vertex="1" parent="1">
                    <mxGeometry x="1330" y="570" width="220" height="110" as="geometry"/>
                </mxCell>
                <mxCell id="AlunoApp-stereotype" value="&lt;i&gt;&amp;lt;&amp;lt;Concrete Observer&amp;gt;&amp;gt;&lt;/i&gt;" style="text;html=1;strokeColor=none;fillColor=none;align=center;verticalAlign=middle;whiteSpace=wrap;rounded=0;" vertex="1" parent="AlunoApp">
                    <mxGeometry y="30" width="220" height="30" as="geometry"/>
                </mxCell>
                <mxCell id="AlunoApp-attrs" value="- nomeDoAluno: string" style="text;html=1;strokeColor=none;fillColor=none;align=left;verticalAlign=middle;whiteSpace=wrap;rounded=0;spacingLeft=4;" vertex="1" parent="AlunoApp">
                    <mxGeometry y="60" width="220" height="20" as="geometry"/>
                </mxCell>
                <mxCell id="AlunoApp-methods" value="+ update(mensagem: string)" style="text;html=1;strokeColor=none;fillColor=none;align=left;verticalAlign=middle;whiteSpace=wrap;rounded=0;spacingLeft=4;" vertex="1" parent="AlunoApp">
                    <mxGeometry y="80" width="220" height="30" as="geometry"/>
                </mxCell>
                <mxCell id="CentralDeNotificacoes" value="CentralDeNotificacoes" style="swimlane;fontStyle=1;align=center;verticalAlign=top;childLayout=stackLayout;horizontal=1;startSize=30;horizontalStack=0;resizeParent=1;resizeParentMax=0;resizeLast=0;collapsible=0;marginBottom=0;html=1;whiteSpace=wrap;" vertex="1" parent="1">
                    <mxGeometry x="940" y="345" width="280" height="120" as="geometry"/>
                </mxCell>
                <mxCell id="CentralDeNotificacoes-stereotype" value="&lt;i&gt;&amp;lt;&amp;lt;Concrete Subject&amp;gt;&amp;gt;&lt;/i&gt;" style="text;html=1;strokeColor=none;fillColor=none;align=center;verticalAlign=middle;whiteSpace=wrap;rounded=0;" vertex="1" parent="CentralDeNotificacoes">
                    <mxGeometry y="30" width="280" height="30" as="geometry"/>
                </mxCell>
                <mxCell id="CentralDeNotificacoes-attrs" value="- observers: vector&amp;lt;IObserver&amp;gt;&lt;br&gt;- mensagemAtual: string" style="text;html=1;strokeColor=none;fillColor=none;align=left;verticalAlign=middle;whiteSpace=wrap;rounded=0;spacingLeft=4;" vertex="1" parent="CentralDeNotificacoes">
                    <mxGeometry y="60" width="280" height="30" as="geometry"/>
                </mxCell>
                <mxCell id="CentralDeNotificacoes-methods" value="+ enviarNovaMensagem(msg: string)" style="text;html=1;strokeColor=none;fillColor=none;align=left;verticalAlign=middle;whiteSpace=wrap;rounded=0;spacingLeft=4;" vertex="1" parent="CentralDeNotificacoes">
                    <mxGeometry y="90" width="280" height="30" as="geometry"/>
                </mxCell>
                <mxCell id="EnviarNotificacaoCommand" value="EnviarNotificacaoCommand" style="swimlane;fontStyle=1;align=center;verticalAlign=top;childLayout=stackLayout;horizontal=1;startSize=30;horizontalStack=0;resizeParent=1;resizeParentMax=0;resizeLast=0;collapsible=0;marginBottom=0;html=1;whiteSpace=wrap;" vertex="1" parent="1">
                    <mxGeometry x="660" y="340" width="220" height="130" as="geometry"/>
                </mxCell>
                <mxCell id="EnviarNotificacaoCommand-stereotype" value="&lt;i&gt;&amp;lt;&amp;lt;Concrete Command&amp;gt;&amp;gt;&lt;/i&gt;" style="text;html=1;strokeColor=none;fillColor=none;align=center;verticalAlign=middle;whiteSpace=wrap;rounded=0;" vertex="1" parent="EnviarNotificacaoCommand">
                    <mxGeometry y="30" width="220" height="30" as="geometry"/>
                </mxCell>
                <mxCell id="EnviarNotificacaoCommand-attrs" value="- central: CentralDeNotificacoes&lt;br&gt;- mensagem: string" style="text;html=1;strokeColor=none;fillColor=none;align=left;verticalAlign=middle;whiteSpace=wrap;rounded=0;spacingLeft=4;" vertex="1" parent="EnviarNotificacaoCommand">
                    <mxGeometry y="60" width="220" height="40" as="geometry"/>
                </mxCell>
                <mxCell id="EnviarNotificacaoCommand-methods" value="+ execute()&lt;br&gt;+ undo()" style="text;html=1;strokeColor=none;fillColor=none;align=left;verticalAlign=middle;whiteSpace=wrap;rounded=0;spacingLeft=4;" vertex="1" parent="EnviarNotificacaoCommand">
                    <mxGeometry y="100" width="220" height="30" as="geometry"/>
                </mxCell>
                <mxCell id="edge-alunoapp-impl-iobserver" style="endArrow=block;endFill=0;html=1;rounded=0;dashed=1;exitX=0.5;exitY=0;exitDx=0;exitDy=0;entryX=0.5;entryY=1;entryDx=0;entryDy=0;" edge="1" parent="1" source="AlunoApp" target="IObserver">
                    <mxGeometry relative="1" as="geometry"/>
                </mxCell>
                <mxCell id="edge-central-impl-isubject" style="endArrow=block;endFill=0;html=1;rounded=0;dashed=1;entryX=0.5;entryY=1;entryDx=0;entryDy=0;exitX=0.5;exitY=0;exitDx=0;exitDy=0;" edge="1" parent="1" source="CentralDeNotificacoes" target="ISubject">
                    <mxGeometry relative="1" as="geometry"/>
                </mxCell>
                <mxCell id="edge-central-uses-iobserver" style="endArrow=open;endFill=0;dashed=1;html=1;rounded=0;exitX=1;exitY=0.5;exitDx=0;exitDy=0;entryX=0;entryY=0.5;entryDx=0;entryDy=0;" edge="1" parent="1" source="CentralDeNotificacoes" target="IObserver">
                    <mxGeometry relative="1" as="geometry"/>
                </mxCell>
                <mxCell id="edge-enviarcmd-impl-icommand" style="endArrow=block;endFill=0;html=1;rounded=0;dashed=1;exitX=0.5;exitY=0;exitDx=0;exitDy=0;entryX=0.5;entryY=1;entryDx=0;entryDy=0;" edge="1" parent="1" source="EnviarNotificacaoCommand" target="ICommand">
                    <mxGeometry relative="1" as="geometry"/>
                </mxCell>
                <mxCell id="edge-enviarcmd-uses-central" style="endArrow=open;endFill=0;dashed=1;html=1;rounded=0;exitX=1;exitY=0.5;exitDx=0;exitDy=0;entryX=0;entryY=0.5;entryDx=0;entryDy=0;" edge="1" parent="1" source="EnviarNotificacaoCommand" target="CentralDeNotificacoes">
                    <mxGeometry relative="1" as="geometry"/>
                </mxCell>
                <mxCell id="note-observer" value="&lt;b&gt;PadrÃ£o Observer&lt;/b&gt;&lt;br&gt;A &lt;i&gt;Facade&lt;/i&gt; executa o &lt;i&gt;EnviarNotificacaoCommand&lt;/i&gt;, que por sua vez aciona a &lt;i&gt;CentralDeNotificacoes&lt;/i&gt; (Subject). A Central entÃ£o percorre a sua lista de &lt;i&gt;IObserver&lt;/i&gt;s (os &lt;i&gt;AlunoApp&lt;/i&gt;s) e chama o mÃ©todo &lt;i&gt;update()&lt;/i&gt; em cada um, notificando-os da alteraÃ§Ã£o." style="shape=note;whiteSpace=wrap;html=1;backgroundOutline=1;darkOpacity=0.05;size=14;" vertex="1" parent="1">
                    <mxGeometry x="1010" y="715" width="480" height="110" as="geometry"/>
                </mxCell>
                <mxCell id="5" style="endArrow=block;endFill=0;html=1;rounded=0;dashed=1;entryX=1;entryY=0.5;entryDx=0;entryDy=0;exitX=0;exitY=0.25;exitDx=0;exitDy=0;" edge="1" parent="1" source="CentralDeNotificacoes-stereotype" target="FacadeController-attrs">
                    <mxGeometry relative="1" as="geometry">
                        <mxPoint x="1090" y="355" as="sourcePoint"/>
                        <mxPoint x="1090" y="280" as="targetPoint"/>
                        <Array as="points">
                            <mxPoint x="860" y="270"/>
                        </Array>
                    </mxGeometry>
                </mxCell>
            </root>
        </mxGraphModel>
    </diagram>
</mxfile>